<svg xmlns="http://www.w3.org/2000/svg" viewBox="0 0 800 300">
  <defs>
    <!-- Gradient for THE MARKETING -->
    <linearGradient id="marketing-gradient" x1="0%" y1="0%" x2="100%" y2="0%">
      <stop offset="0%" style="stop-color:#FF6B6B;stop-opacity:1" />
      <stop offset="50%" style="stop-color:#4ECDC4;stop-opacity:1" />
      <stop offset="100%" style="stop-color:#FFD93D;stop-opacity:1" />
    </linearGradient>

    <!-- Honeycomb Pattern -->
    <pattern id="honeycomb" patternUnits="userSpaceOnUse" width="100" height="86.6" patternTransform="rotate(30)">
      <polygon points="50,0 100,25 100,75 50,100 0,75 0,25" fill="#FFF4E0" stroke="#FFD700" stroke-width="2" opacity="0.3"/>
    </pattern>

    <!-- Shadow Filter -->
    <filter id="shadow" x="-20%" y="-20%" width="140%" height="140%">
      <feGaussianBlur in="SourceAlpha" stdDeviation="4"/>
      <feOffset dx="4" dy="4" result="offsetblur"/>
      <feFlood flood-color="#000" flood-opacity="0.3"/>
      <feComposite in2="offsetblur" operator="in"/>
      <feMerge>
        <feMergeNode/>
        <feMergeNode in="SourceGraphic"/>
      </feMerge>
    </filter>

    <!-- Bee Wing Path -->
    <path id="bee-wing" d="M0,0 C20,-20 40,20 60,0 C80,-20 100,20 120,0" 
          fill="none" stroke="#FFD700" stroke-width="6" opacity="0.6"/>
  </defs>

  <!-- Background -->
  <rect width="800" height="300" fill="url(#honeycomb)"/>

  <!-- Decorative Bee Wings -->
  <g transform="translate(50, 50) rotate(20)">
    <use href="#bee-wing" x="-60" y="0"/>
    <use href="#bee-wing" x="-60" y="40" transform="scale(0.8)"/>
  </g>

  <g transform="translate(700, 250) rotate(-20)">
    <use href="#bee-wing" x="-60" y="0"/>
    <use href="#bee-wing" x="-60" y="40" transform="scale(0.8)"/>
  </g>

  <!-- Main Text -->
  <text x="400" y="150" 
        text-anchor="middle" 
        font-family="Montserrat, sans-serif" 
        font-size="70" 
        font-weight="900"
        fill="url(#marketing-gradient)"
        filter="url(#shadow)">
    THE MARKETING
  </text>

  <text x="400" y="250" 
        text-anchor="middle" 
        font-family="Montserrat, sans-serif" 
        font-size="120" 
        font-weight="900"
        fill="#2C3E50"
        filter="url(#shadow)">
    BEE
  </text>

  <!-- Subtle Bee Icon -->
  <g transform="translate(700, 50) scale(0.5)">
    <ellipse cx="50" cy="30" rx="40" ry="20" fill="#FFC107" opacity="0.7"/>
    <path d="M10,30 Q50,0 90,30 T170,30" 
          fill="none" stroke="#FF5722" stroke-width="10" opacity="0.6"/>
    <circle cx="50" cy="30" r="10" fill="#212121"/>
    <circle cx="90" cy="30" r="10" fill="#212121"/>
  </g>
</svg>
